{
	"asset":{
		"version":"2.0",
		"generator":"Created using the official Cinema 4D glTF Exporter 1.000x284978"
	},
	"textures":[{
		"sampler":0,
		"source":0
	},
	{
		"sampler":1,
		"source":1
	}],
	"scenes":[{
		"nodes":[0,
		4]
	}],
	"nodes":[{
		"name":"egg",
		"translation":[0.0,
		0.0,
		0.0],
		"rotation":[0.06784147769212723,
		-0.006721571087837219,
		0.029712602496147157,
		-0.9972309470176697],
		"scale":[1.0,
		1.0,
		1.0],
		"children":[1,
		2]
	},
	{
		"name":"egg.down",
		"translation":[0.0,
		0.0,
		0.0],
		"rotation":[-1.3877787807814458e-17,
		0.0,
		0.0,
		-1.0],
		"scale":[1.0,
		1.0,
		1.0],
		"mesh":0
	},
	{
		"name":"rotation",
		"translation":[0.8426828384399414,
		0.55344557762146,
		0.0],
		"rotation":[0.009877431206405163,
		-0.014352892525494099,
		-0.8236537575721741,
		0.5668253302574158],
		"scale":[1.0,
		1.0,
		1.0],
		"children":[3]
	},
	{
		"name":"egg.top",
		"translation":[-0.8426828384399414,
		-0.55344557762146,
		-2.7755575615628916e-17],
		"rotation":[0.0,
		0.0,
		0.0,
		-1.0],
		"scale":[1.0,
		1.0,
		1.0],
		"mesh":1
	},
	{
		"name":"Platonic",
		"translation":[0.0,
		1.8209787607192994,
		-0.03789866343140602],
		"rotation":[0.0,
		0.0,
		0.0,
		-1.0],
		"scale":[1.0,
		1.0,
		1.0],
		"mesh":2
	}],
	"samplers":[{
		"magFilter":9729,
		"minFilter":9729,
		"wrapS":10497,
		"wrapT":10497
	},
	{
		"magFilter":9729,
		"minFilter":9729,
		"wrapS":10497,
		"wrapT":10497
	}],
	"meshes":[{
		"name":"egg.down",
		"primitives":[{
			"attributes":{
				"POSITION":3,
				"NORMAL":4,
				"TEXCOORD_0":5
			},
			"indices":2,
			"material":0
		}]
	},
	{
		"name":"egg.top",
		"primitives":[{
			"attributes":{
				"POSITION":9,
				"NORMAL":10,
				"TEXCOORD_0":11
			},
			"indices":8,
			"material":0
		}]
	},
	{
		"name":"Platonic",
		"primitives":[{
			"attributes":{
				"POSITION":13,
				"NORMAL":14,
				"TEXCOORD_0":15
			},
			"indices":12,
			"material":1
		}]
	}],
	"accessors":[{
		"bufferView":0,
		"type":"SCALAR",
		"componentType":5126,
		"count":240,
		"byteOffset":0,
		"min":[0.0],
		"max":[9.958333015441895]
	},
	{
		"bufferView":0,
		"type":"VEC4",
		"componentType":5126,
		"count":240,
		"byteOffset":960,
		"min":[-0.05556323006749153,
		-0.011032464914023877,
		-0.02607300877571106,
		-0.999957263469696],
		"max":[0.07967190444469452,
		0.0040721227414906029,
		0.048016391694545749,
		1.0]
	},
	{
		"bufferView":1,
		"type":"SCALAR",
		"componentType":5123,
		"count":10404,
		"byteOffset":0,
		"min":[0],
		"max":[4153]
	},
	{
		"bufferView":2,
		"type":"VEC3",
		"componentType":5126,
		"count":4154,
		"byteOffset":0,
		"min":[-0.9930354356765747,
		-9.069826205632126e-7,
		-0.9986119270324707],
		"max":[0.9609879851341248,
		1.480086088180542,
		0.9823853969573975]
	},
	{
		"bufferView":2,
		"type":"VEC3",
		"componentType":5126,
		"count":4154,
		"byteOffset":12,
		"min":[-1.0,
		-1.0,
		-0.9943438172340393],
		"max":[1.0,
		1.0,
		0.9943438172340393]
	},
	{
		"bufferView":2,
		"type":"VEC2",
		"componentType":5126,
		"count":4154,
		"byteOffset":24,
		"min":[0.06745016574859619,
		0.40301746129989626],
		"max":[1.0699939727783204,
		0.9965245723724365]
	},
	{
		"bufferView":3,
		"type":"SCALAR",
		"componentType":5126,
		"count":240,
		"byteOffset":0,
		"min":[0.0],
		"max":[9.958333015441895]
	},
	{
		"bufferView":3,
		"type":"VEC4",
		"componentType":5126,
		"count":240,
		"byteOffset":960,
		"min":[-0.0005944879376329482,
		-0.014352892525494099,
		-0.8236537575721741,
		-1.0],
		"max":[0.009877431206405163,
		0.0,
		0.0,
		0.9999998211860657]
	},
	{
		"bufferView":4,
		"type":"SCALAR",
		"componentType":5123,
		"count":12600,
		"byteOffset":0,
		"min":[0],
		"max":[5059]
	},
	{
		"bufferView":5,
		"type":"VEC3",
		"componentType":5126,
		"count":5060,
		"byteOffset":0,
		"min":[-0.9845126271247864,
		0.5553957223892212,
		-0.9879668354988098],
		"max":[0.9928558468818665,
		2.5199978351593019,
		0.9982159733772278]
	},
	{
		"bufferView":5,
		"type":"VEC3",
		"componentType":5126,
		"count":5060,
		"byteOffset":12,
		"min":[-1.0,
		-1.0,
		-0.9943438172340393],
		"max":[1.0,
		1.0,
		0.9943438172340393]
	},
	{
		"bufferView":5,
		"type":"VEC2",
		"componentType":5126,
		"count":5060,
		"byteOffset":24,
		"min":[0.06738109141588211,
		0.0034754276275634767],
		"max":[1.499999761581421,
		0.6508691310882568]
	},
	{
		"bufferView":6,
		"type":"SCALAR",
		"componentType":5123,
		"count":60,
		"byteOffset":0,
		"min":[0],
		"max":[59]
	},
	{
		"bufferView":7,
		"type":"VEC3",
		"componentType":5126,
		"count":60,
		"byteOffset":0,
		"min":[-0.42532607913017275,
		-0.42532607913017275,
		-0.42532607913017275],
		"max":[0.42532607913017275,
		0.42532607913017275,
		0.42532607913017275]
	},
	{
		"bufferView":7,
		"type":"VEC3",
		"componentType":5126,
		"count":60,
		"byteOffset":12,
		"min":[-0.9341722726821899,
		-0.9341722726821899,
		-0.9341722726821899],
		"max":[0.9341722726821899,
		0.9341722726821899,
		0.9341722726821899]
	},
	{
		"bufferView":7,
		"type":"VEC2",
		"componentType":5126,
		"count":60,
		"byteOffset":24,
		"min":[0.0,
		0.0],
		"max":[1.0,
		0.8659999370574951]
	},
	{
		"bufferView":8,
		"type":"SCALAR",
		"componentType":5126,
		"count":240,
		"byteOffset":0,
		"min":[0.0],
		"max":[9.958333015441895]
	},
	{
		"bufferView":8,
		"type":"VEC3",
		"componentType":5126,
		"count":240,
		"byteOffset":960,
		"min":[0.0,
		0.5185964107513428,
		-0.03789866343140602],
		"max":[0.0,
		2.5680549144744875,
		-0.03789866343140602]
	}],
	"bufferViews":[{
		"buffer":0,
		"byteOffset":0,
		"byteLength":4800
	},
	{
		"buffer":1,
		"byteOffset":0,
		"byteLength":20808,
		"target":34963
	},
	{
		"buffer":1,
		"byteOffset":20808,
		"byteLength":132928,
		"target":34962,
		"byteStride":32
	},
	{
		"buffer":2,
		"byteOffset":0,
		"byteLength":4800
	},
	{
		"buffer":3,
		"byteOffset":0,
		"byteLength":25200,
		"target":34963
	},
	{
		"buffer":3,
		"byteOffset":25200,
		"byteLength":161920,
		"target":34962,
		"byteStride":32
	},
	{
		"buffer":4,
		"byteOffset":0,
		"byteLength":120,
		"target":34963
	},
	{
		"buffer":4,
		"byteOffset":120,
		"byteLength":1920,
		"target":34962,
		"byteStride":32
	},
	{
		"buffer":5,
		"byteOffset":0,
		"byteLength":3840
	}],
	"buffers":[{
		"uri":"data:application/octet-stream;base64,",
		"byteLength":4800
	},
	{
		"uri":"data:application/octet-stream;base64,",
		"byteLength":153736
	},
	{
		"uri":"data:application/octet-stream;base64,",
		"byteLength":4800
	},
	{
		"uri":"data:application/octet-stream;base64,",
		"byteLength":187120
	},
	{
		"uri":"data:application/octet-stream;base64,",
		"byteLength":2040
	},
	{
		"uri":"data:application/octet-stream;base64,",
		"byteLength":3840
	}],
	"images":[{
		"uri":"data:image/jpeg;base64,"
	},
	{
		"uri":"data:image/jpeg;base64,"
	}],
	"materials":[{
		"pbrMetallicRoughness":{
			"baseColorTexture":{
				"index":0
			},
			"baseColorFactor":[0.3337,
			0.2743014000000002,
			0.036707,
			1.0],
			"metallicFactor":0.44650000000000009,
			"roughnessFactor":0.14100000000000002
		},
		"normalTexture":{
			"index":1,
			"scale":0.3
		},
		"name":"egg_mat",
		"emissiveFactor":[0.0,
		0.0,
		0.0],
		"alphaMode":"OPAQUE",
		"doubleSided":false
	},
	{
		"pbrMetallicRoughness":{
			"baseColorFactor":[0.7159999999999998,
			0.07999999999999999,
			0.8,
			1.0],
			"metallicFactor":0.0,
			"roughnessFactor":0.5
		},
		"name":"stuff",
		"emissiveFactor":[0.0,
		0.0,
		0.0],
		"alphaMode":"OPAQUE",
		"doubleSided":false
	}],
	"animations":[{
		"samplers":[{
			"input":0,
			"interpolation":"LINEAR",
			"output":1
		},
		{
			"input":6,
			"interpolation":"LINEAR",
			"output":7
		},
		{
			"input":16,
			"interpolation":"LINEAR",
			"output":17
		}],
		"channels":[{
			"sampler":0,
			"target":{
				"path":"rotation",
				"node":0
			}
		},
		{
			"sampler":1,
			"target":{
				"path":"rotation",
				"node":2
			}
		},
		{
			"sampler":2,
			"target":{
				"path":"translation",
				"node":4
			}
		}]
	}]
}